<mxfile host="Electron" modified="2024-03-30T18:03:50.557Z" agent="Mozilla/5.0 (Windows NT 10.0; Win64; x64) AppleWebKit/537.36 (KHTML, like Gecko) draw.io/22.0.0 Chrome/114.0.5735.289 Electron/25.8.3 Safari/537.36" etag="nH0FF0eYPKhPbWMqxhPa" version="22.0.0" type="device">
  <diagram name="Page-1" id="1SdjRqXGdwW0VTP0FCKh">
    <mxGraphModel dx="2084" dy="726" grid="1" gridSize="10" guides="1" tooltips="1" connect="1" arrows="1" fold="1" page="1" pageScale="1" pageWidth="850" pageHeight="1100" math="0" shadow="0">
      <root>
        <mxCell id="0" />
        <mxCell id="1" parent="0" />
        <mxCell id="uXNVCeGyyayB7FhPLqbn-27" value="" style="whiteSpace=wrap;html=1;aspect=fixed;strokeWidth=3;" parent="1" vertex="1">
          <mxGeometry x="-760" y="110" width="360" height="360" as="geometry" />
        </mxCell>
        <mxCell id="uXNVCeGyyayB7FhPLqbn-29" value="&amp;nbsp; &amp;nbsp;&lt;font style=&quot;font-size: 16px;&quot;&gt;Student/Guest Dashboard&lt;/font&gt;" style="rounded=0;whiteSpace=wrap;html=1;strokeWidth=3;align=left;" parent="1" vertex="1">
          <mxGeometry x="-760" y="110" width="360" height="40" as="geometry" />
        </mxCell>
        <mxCell id="uXNVCeGyyayB7FhPLqbn-30" value="" style="rounded=0;whiteSpace=wrap;html=1;strokeWidth=2;" parent="1" vertex="1">
          <mxGeometry x="-759" y="151" width="159" height="319" as="geometry" />
        </mxCell>
        <mxCell id="uXNVCeGyyayB7FhPLqbn-31" value="" style="rounded=1;whiteSpace=wrap;html=1;" parent="1" vertex="1">
          <mxGeometry x="-744.25" y="170" width="129.5" height="30" as="geometry" />
        </mxCell>
        <mxCell id="uXNVCeGyyayB7FhPLqbn-32" value="" style="rounded=1;whiteSpace=wrap;html=1;" parent="1" vertex="1">
          <mxGeometry x="-744.25" y="220" width="129.5" height="30" as="geometry" />
        </mxCell>
        <mxCell id="uXNVCeGyyayB7FhPLqbn-33" value="Explore AR Field Trips" style="rounded=1;whiteSpace=wrap;html=1;" parent="1" vertex="1">
          <mxGeometry x="-746.25" y="280" width="134.25" height="30" as="geometry" />
        </mxCell>
        <mxCell id="uXNVCeGyyayB7FhPLqbn-36" value="" style="rounded=0;whiteSpace=wrap;html=1;" parent="1" vertex="1">
          <mxGeometry x="-731.62" y="184" width="104.25" height="1" as="geometry" />
        </mxCell>
        <mxCell id="uXNVCeGyyayB7FhPLqbn-37" value="" style="rounded=0;whiteSpace=wrap;html=1;" parent="1" vertex="1">
          <mxGeometry x="-731.62" y="234" width="104.25" height="1" as="geometry" />
        </mxCell>
        <mxCell id="uXNVCeGyyayB7FhPLqbn-38" value="" style="rounded=1;whiteSpace=wrap;html=1;" parent="1" vertex="1">
          <mxGeometry x="-744.25" y="220" width="129.5" height="30" as="geometry" />
        </mxCell>
        <mxCell id="uXNVCeGyyayB7FhPLqbn-41" value="" style="rounded=0;whiteSpace=wrap;html=1;" parent="1" vertex="1">
          <mxGeometry x="-731.63" y="233" width="104.25" height="1" as="geometry" />
        </mxCell>
        <mxCell id="uXNVCeGyyayB7FhPLqbn-42" value="" style="whiteSpace=wrap;html=1;aspect=fixed;" parent="1" vertex="1">
          <mxGeometry x="-580" y="200" width="150" height="150" as="geometry" />
        </mxCell>
        <mxCell id="uXNVCeGyyayB7FhPLqbn-43" value="" style="endArrow=none;html=1;rounded=0;entryX=1;entryY=0;entryDx=0;entryDy=0;exitX=0;exitY=1;exitDx=0;exitDy=0;" parent="1" source="uXNVCeGyyayB7FhPLqbn-42" target="uXNVCeGyyayB7FhPLqbn-42" edge="1">
          <mxGeometry width="50" height="50" relative="1" as="geometry">
            <mxPoint x="-570" y="290" as="sourcePoint" />
            <mxPoint x="-520" y="240" as="targetPoint" />
          </mxGeometry>
        </mxCell>
        <mxCell id="uXNVCeGyyayB7FhPLqbn-44" value="" style="endArrow=none;html=1;rounded=0;entryX=0;entryY=0;entryDx=0;entryDy=0;exitX=1;exitY=1;exitDx=0;exitDy=0;" parent="1" source="uXNVCeGyyayB7FhPLqbn-42" target="uXNVCeGyyayB7FhPLqbn-42" edge="1">
          <mxGeometry width="50" height="50" relative="1" as="geometry">
            <mxPoint x="-570" y="290" as="sourcePoint" />
            <mxPoint x="-520" y="240" as="targetPoint" />
          </mxGeometry>
        </mxCell>
        <mxCell id="uXNVCeGyyayB7FhPLqbn-45" value="" style="endArrow=classic;html=1;rounded=0;exitX=1;exitY=0.5;exitDx=0;exitDy=0;" parent="1" source="uXNVCeGyyayB7FhPLqbn-33" edge="1">
          <mxGeometry width="50" height="50" relative="1" as="geometry">
            <mxPoint x="-570" y="290" as="sourcePoint" />
            <mxPoint x="-350" y="250" as="targetPoint" />
            <Array as="points">
              <mxPoint x="-370" y="295" />
              <mxPoint x="-370" y="250" />
            </Array>
          </mxGeometry>
        </mxCell>
        <mxCell id="uXNVCeGyyayB7FhPLqbn-79" value="" style="rounded=0;whiteSpace=wrap;html=1;strokeWidth=3;container=0;" parent="1" vertex="1">
          <mxGeometry x="-350" y="140" width="370" height="240.75" as="geometry" />
        </mxCell>
        <mxCell id="uXNVCeGyyayB7FhPLqbn-80" value="" style="group" parent="1" vertex="1" connectable="0">
          <mxGeometry x="-231.5" y="190" width="40" height="50" as="geometry" />
        </mxCell>
        <mxCell id="uXNVCeGyyayB7FhPLqbn-81" value="" style="whiteSpace=wrap;html=1;shape=mxgraph.basic.document" parent="uXNVCeGyyayB7FhPLqbn-80" vertex="1">
          <mxGeometry width="40" height="50" as="geometry" />
        </mxCell>
        <mxCell id="uXNVCeGyyayB7FhPLqbn-82" value="" style="group" parent="uXNVCeGyyayB7FhPLqbn-80" vertex="1" connectable="0">
          <mxGeometry x="6" y="16.25" width="28" height="25" as="geometry" />
        </mxCell>
        <mxCell id="uXNVCeGyyayB7FhPLqbn-83" value="" style="group" parent="uXNVCeGyyayB7FhPLqbn-82" vertex="1" connectable="0">
          <mxGeometry width="26.66666666666667" height="25" as="geometry" />
        </mxCell>
        <mxCell id="uXNVCeGyyayB7FhPLqbn-84" value="" style="ellipse;whiteSpace=wrap;html=1;aspect=fixed;" parent="uXNVCeGyyayB7FhPLqbn-83" vertex="1">
          <mxGeometry width="24" height="24" as="geometry" />
        </mxCell>
        <mxCell id="uXNVCeGyyayB7FhPLqbn-85" value="" style="triangle;whiteSpace=wrap;html=1;" parent="uXNVCeGyyayB7FhPLqbn-83" vertex="1">
          <mxGeometry x="10.666666666666668" y="4.166666666666667" width="8.88888888888889" height="16.666666666666668" as="geometry" />
        </mxCell>
        <mxCell id="uXNVCeGyyayB7FhPLqbn-86" value="" style="group" parent="1" vertex="1" connectable="0">
          <mxGeometry x="-231.5" y="270" width="40" height="50" as="geometry" />
        </mxCell>
        <mxCell id="uXNVCeGyyayB7FhPLqbn-87" value="" style="whiteSpace=wrap;html=1;shape=mxgraph.basic.document" parent="uXNVCeGyyayB7FhPLqbn-86" vertex="1">
          <mxGeometry width="40" height="50" as="geometry" />
        </mxCell>
        <mxCell id="uXNVCeGyyayB7FhPLqbn-88" value="" style="group" parent="uXNVCeGyyayB7FhPLqbn-86" vertex="1" connectable="0">
          <mxGeometry x="6" y="16.25" width="28" height="25" as="geometry" />
        </mxCell>
        <mxCell id="uXNVCeGyyayB7FhPLqbn-89" value="" style="group" parent="uXNVCeGyyayB7FhPLqbn-88" vertex="1" connectable="0">
          <mxGeometry width="26.66666666666667" height="25" as="geometry" />
        </mxCell>
        <mxCell id="uXNVCeGyyayB7FhPLqbn-90" value="" style="ellipse;whiteSpace=wrap;html=1;aspect=fixed;" parent="uXNVCeGyyayB7FhPLqbn-89" vertex="1">
          <mxGeometry width="24" height="24" as="geometry" />
        </mxCell>
        <mxCell id="uXNVCeGyyayB7FhPLqbn-91" value="" style="triangle;whiteSpace=wrap;html=1;" parent="uXNVCeGyyayB7FhPLqbn-89" vertex="1">
          <mxGeometry x="10.666666666666668" y="4.166666666666667" width="8.88888888888889" height="16.666666666666668" as="geometry" />
        </mxCell>
        <mxCell id="uXNVCeGyyayB7FhPLqbn-92" value="" style="group" parent="1" vertex="1" connectable="0">
          <mxGeometry x="-311.5" y="270" width="40" height="50" as="geometry" />
        </mxCell>
        <mxCell id="uXNVCeGyyayB7FhPLqbn-93" value="" style="whiteSpace=wrap;html=1;shape=mxgraph.basic.document" parent="uXNVCeGyyayB7FhPLqbn-92" vertex="1">
          <mxGeometry width="40" height="50" as="geometry" />
        </mxCell>
        <mxCell id="uXNVCeGyyayB7FhPLqbn-94" value="" style="group" parent="uXNVCeGyyayB7FhPLqbn-92" vertex="1" connectable="0">
          <mxGeometry x="6" y="16.25" width="28" height="25" as="geometry" />
        </mxCell>
        <mxCell id="uXNVCeGyyayB7FhPLqbn-95" value="" style="group" parent="uXNVCeGyyayB7FhPLqbn-94" vertex="1" connectable="0">
          <mxGeometry width="26.66666666666667" height="25" as="geometry" />
        </mxCell>
        <mxCell id="uXNVCeGyyayB7FhPLqbn-96" value="" style="ellipse;whiteSpace=wrap;html=1;aspect=fixed;" parent="uXNVCeGyyayB7FhPLqbn-95" vertex="1">
          <mxGeometry width="24" height="24" as="geometry" />
        </mxCell>
        <mxCell id="uXNVCeGyyayB7FhPLqbn-97" value="" style="triangle;whiteSpace=wrap;html=1;" parent="uXNVCeGyyayB7FhPLqbn-95" vertex="1">
          <mxGeometry x="10.666666666666668" y="4.166666666666667" width="8.88888888888889" height="16.666666666666668" as="geometry" />
        </mxCell>
        <mxCell id="uXNVCeGyyayB7FhPLqbn-98" value="" style="whiteSpace=wrap;html=1;aspect=fixed;" parent="1" vertex="1">
          <mxGeometry x="-147.57" y="190" width="140" height="140" as="geometry" />
        </mxCell>
        <mxCell id="uXNVCeGyyayB7FhPLqbn-99" value="" style="endArrow=none;html=1;rounded=0;exitX=0;exitY=1;exitDx=0;exitDy=0;entryX=1;entryY=0;entryDx=0;entryDy=0;" parent="1" source="uXNVCeGyyayB7FhPLqbn-98" target="uXNVCeGyyayB7FhPLqbn-98" edge="1">
          <mxGeometry width="50" height="50" relative="1" as="geometry">
            <mxPoint x="-44.56999999999999" y="244" as="sourcePoint" />
            <mxPoint x="5.430000000000007" y="194" as="targetPoint" />
          </mxGeometry>
        </mxCell>
        <mxCell id="uXNVCeGyyayB7FhPLqbn-100" value="" style="endArrow=none;html=1;rounded=0;exitX=0;exitY=0;exitDx=0;exitDy=0;entryX=1;entryY=1;entryDx=0;entryDy=0;" parent="1" source="uXNVCeGyyayB7FhPLqbn-98" target="uXNVCeGyyayB7FhPLqbn-98" edge="1">
          <mxGeometry width="50" height="50" relative="1" as="geometry">
            <mxPoint x="-44.56999999999999" y="244" as="sourcePoint" />
            <mxPoint x="5.430000000000007" y="194" as="targetPoint" />
          </mxGeometry>
        </mxCell>
        <mxCell id="uXNVCeGyyayB7FhPLqbn-101" value="Search videos" style="rounded=0;whiteSpace=wrap;html=1;align=left;" parent="1" vertex="1">
          <mxGeometry x="-350" y="140" width="368.5" height="30" as="geometry" />
        </mxCell>
        <mxCell id="uXNVCeGyyayB7FhPLqbn-109" value="" style="rounded=0;whiteSpace=wrap;html=1;" parent="1" vertex="1">
          <mxGeometry x="68.5" y="240" width="200" height="90" as="geometry" />
        </mxCell>
        <mxCell id="uXNVCeGyyayB7FhPLqbn-110" value="Join" style="rounded=1;whiteSpace=wrap;html=1;" parent="1" vertex="1">
          <mxGeometry x="-201.07467652495382" y="345" width="72.15341959334565" height="22.5" as="geometry" />
        </mxCell>
        <mxCell id="uXNVCeGyyayB7FhPLqbn-174" value="" style="whiteSpace=wrap;html=1;aspect=fixed;dashed=1;dashPattern=12 12;" parent="1" vertex="1">
          <mxGeometry x="-331.5" y="179" width="80" height="80" as="geometry" />
        </mxCell>
        <mxCell id="uXNVCeGyyayB7FhPLqbn-102" value="" style="group" parent="1" vertex="1" connectable="0">
          <mxGeometry x="-313.05" y="192.13" width="61.110000000000014" height="69.75" as="geometry" />
        </mxCell>
        <mxCell id="uXNVCeGyyayB7FhPLqbn-103" value="" style="whiteSpace=wrap;html=1;shape=mxgraph.basic.document" parent="uXNVCeGyyayB7FhPLqbn-102" vertex="1">
          <mxGeometry width="40" height="50" as="geometry" />
        </mxCell>
        <mxCell id="uXNVCeGyyayB7FhPLqbn-104" value="" style="group" parent="uXNVCeGyyayB7FhPLqbn-102" vertex="1" connectable="0">
          <mxGeometry x="6" y="16.25" width="55.110000000000014" height="53.5" as="geometry" />
        </mxCell>
        <mxCell id="uXNVCeGyyayB7FhPLqbn-105" value="" style="group" parent="uXNVCeGyyayB7FhPLqbn-104" vertex="1" connectable="0">
          <mxGeometry width="55.110000000000014" height="53.5" as="geometry" />
        </mxCell>
        <mxCell id="uXNVCeGyyayB7FhPLqbn-106" value="" style="ellipse;whiteSpace=wrap;html=1;aspect=fixed;" parent="uXNVCeGyyayB7FhPLqbn-105" vertex="1">
          <mxGeometry width="24" height="24" as="geometry" />
        </mxCell>
        <mxCell id="uXNVCeGyyayB7FhPLqbn-107" value="" style="triangle;whiteSpace=wrap;html=1;" parent="uXNVCeGyyayB7FhPLqbn-105" vertex="1">
          <mxGeometry x="10.666666666666668" y="4.166666666666667" width="8.88888888888889" height="16.666666666666668" as="geometry" />
        </mxCell>
        <mxCell id="uXNVCeGyyayB7FhPLqbn-175" value="" style="endArrow=classic;html=1;rounded=0;exitX=1;exitY=0.5;exitDx=0;exitDy=0;entryX=0;entryY=0.5;entryDx=0;entryDy=0;" parent="1" source="uXNVCeGyyayB7FhPLqbn-110" target="uXNVCeGyyayB7FhPLqbn-109" edge="1">
          <mxGeometry width="50" height="50" relative="1" as="geometry">
            <mxPoint x="-190" y="380" as="sourcePoint" />
            <mxPoint x="-140" y="330" as="targetPoint" />
            <Array as="points">
              <mxPoint x="30" y="356" />
              <mxPoint x="40" y="285" />
            </Array>
          </mxGeometry>
        </mxCell>
        <mxCell id="uXNVCeGyyayB7FhPLqbn-178" value="" style="html=1;verticalLabelPosition=bottom;labelBackgroundColor=#ffffff;verticalAlign=top;shadow=0;dashed=0;strokeWidth=2;shape=mxgraph.ios7.misc.loading_circle;" parent="1" vertex="1">
          <mxGeometry x="147" y="253" width="40" height="40" as="geometry" />
        </mxCell>
        <mxCell id="uXNVCeGyyayB7FhPLqbn-180" value="Please wait while the environment is being ready" style="text;html=1;strokeColor=none;fillColor=none;align=center;verticalAlign=middle;whiteSpace=wrap;rounded=0;fontSize=9;" parent="1" vertex="1">
          <mxGeometry x="92" y="300" width="150" height="30" as="geometry" />
        </mxCell>
      </root>
    </mxGraphModel>
  </diagram>
</mxfile>
